<?xml version="1.0" encoding="UTF-8"?>
<svg id="uuid-1d2a4b4e-fe1a-4f73-b78a-2eaff49c40ae" fill="white"  xmlns="http://www.w3.org/2000/svg" viewBox="0 0 92.63 17.95">
  <g id="uuid-dbecb2b7-7246-4a25-8e89-a7c16286d06b">
    <g>
      <path d="M5.51,.1V17.68H0V.1H5.51Z" />
      <path d="M24.85,17.68h-5.51l-5.83-8.84v8.84H7.99V.1h5.51l5.83,8.99V.1h5.51V17.68h.01Z" />
      <path d="M38.08,8.64l6.5,9.04h-6.63l-5.11-7.62v7.62h-5.51V.1h5.51V7.52L38.01,.1h6.58l-6.5,8.54h0Z" />
      <path d="M45.7,1.51c0-.43,.09-.75,.27-.96s.51-.31,.99-.31h5.69c.79,0,1.51,.12,2.15,.36,.64,.24,1.19,.58,1.65,1.02,.46,.44,.82,.96,1.07,1.55,.25,.6,.37,1.25,.37,1.96,0,.99-.25,1.87-.74,2.62s-1.18,1.29-2.06,1.63v.1c.68,.22,1.17,.53,1.46,.96s.53,.94,.7,1.55l1.44,5.24c.03,.08,.04,.18,0,.29-.02,.11-.13,.16-.31,.16h-1.64c-.08,0-.17-.02-.26-.05-.09-.03-.15-.12-.19-.27l-1.32-4.74c-.13-.48-.31-.88-.52-1.19-.22-.31-.47-.56-.76-.74-.29-.18-.61-.31-.97-.37-.36-.07-.74-.1-1.15-.1h-3.55v7.05c0,.18-.03,.3-.1,.35-.07,.05-.19,.07-.37,.07h-1.39c-.17,0-.29-.02-.36-.07s-.11-.17-.11-.35V1.51Zm9.91,3.72c0-.33-.05-.67-.15-1.01-.1-.34-.27-.65-.52-.93s-.58-.51-.99-.68-.94-.26-1.56-.26h-4.32v5.86h4.15c.6,0,1.11-.08,1.54-.24s.78-.37,1.06-.65,.48-.59,.61-.94c.13-.36,.2-.74,.2-1.15h-.02Z" />
      <path d="M60.58,.72c0-.18,.04-.3,.11-.35,.07-.05,.19-.07,.36-.07h1.34c.18,0,.31,.02,.37,.07,.07,.05,.1,.17,.1,.35V17.25c0,.18-.03,.3-.1,.35-.07,.05-.19,.07-.37,.07h-1.34c-.17,0-.29-.02-.36-.07s-.11-.17-.11-.35V.72Z" />
      <path d="M78.5,13.03c0,.83-.16,1.55-.47,2.16s-.74,1.13-1.29,1.54-1.19,.72-1.94,.92c-.74,.2-1.55,.3-2.41,.3-.48,0-.98-.02-1.51-.06s-1.07-.11-1.61-.21c-.55-.1-1.09-.23-1.63-.4s-1.06-.37-1.55-.62c-.18-.1-.22-.26-.1-.5l.6-1.32c.08-.18,.21-.23,.4-.15,.86,.38,1.75,.67,2.67,.88s1.76,.31,2.52,.31c1.26,0,2.24-.24,2.94-.71s1.06-1.15,1.06-2.05c0-.43-.09-.81-.26-1.13-.17-.32-.43-.62-.77-.89s-.77-.53-1.28-.77c-.51-.24-1.11-.48-1.79-.73-.91-.33-1.71-.66-2.4-.99s-1.26-.69-1.71-1.08-.8-.82-1.03-1.3-.35-1.03-.35-1.66c0-1.36,.47-2.46,1.42-3.3S70.33,0,72.13,0C72.96,0,73.83,.08,74.75,.24c.92,.16,1.78,.41,2.57,.76,.18,.08,.24,.22,.17,.42l-.55,1.39c-.05,.12-.1,.18-.14,.2s-.1,0-.19-.03c-.84-.33-1.65-.57-2.42-.71s-1.49-.21-2.15-.21c-.99,0-1.76,.22-2.31,.66-.55,.44-.82,1-.82,1.68,0,.41,.09,.77,.27,1.07s.45,.57,.8,.82c.36,.25,.81,.49,1.35,.72,.54,.23,1.19,.5,1.93,.79,.69,.26,1.35,.54,1.98,.83,.63,.29,1.18,.63,1.66,1.03s.86,.87,1.15,1.42,.43,1.2,.43,1.96h.02Z" />
      <path d="M92.54,17.55c-.06,.08-.19,.12-.38,.12h-6.9c-.81,0-1.49-.12-2.02-.35-.54-.23-.97-.54-1.29-.92s-.55-.83-.68-1.34-.2-1.06-.2-1.64V4.54c0-.56,.07-1.1,.22-1.63,.15-.52,.39-.98,.73-1.37,.34-.39,.77-.7,1.3-.93,.53-.23,1.17-.35,1.94-.35h6.78c.18,0,.3,.04,.36,.12s.09,.22,.09,.4V1.84c0,.18-.03,.31-.09,.38s-.18,.11-.36,.11h-6.75c-.7,0-1.2,.15-1.5,.46s-.46,.78-.46,1.43v3.23h7.89c.18,0,.3,.04,.36,.12s.09,.22,.09,.4v.94c0,.17-.03,.29-.09,.37s-.18,.12-.36,.12h-7.89v4.32c0,.56,.15,1.01,.45,1.35,.3,.34,.8,.51,1.51,.51h6.88c.2,0,.33,.04,.38,.12s.09,.22,.09,.4v1.04c0,.18-.03,.31-.09,.4h-.01Z" />
    </g>
  </g>
</svg>