<?xml version="1.0" encoding="utf-8"?>
<!-- Generator: Adobe Illustrator 26.5.0, SVG Export Plug-In . SVG Version: 6.00 Build 0)  -->
<svg version="1.1" id="Capa_2_00000104665686085496544690000009505239336909876910_"
	 xmlns="http://www.w3.org/2000/svg" xmlns:xlink="http://www.w3.org/1999/xlink" x="0px" y="0px" viewBox="0 0 320.6 307.2"
	 style="enable-background:new 0 0 320.6 307.2;" xml:space="preserve">
<style type="text/css">
	.st0{fill:#000;}
</style>
<path class="st0" d="M286.7,294.7L17.5,25.4c-4.5-4.5-4.5-11.9,0-16.4l0,0C22,4.5,29.3,4.5,33.9,9l269.3,269.3
	c4.5,4.5,4.5,11.9,0,16.4l0,0C298.6,299.2,291.2,299.2,286.7,294.7z"/>
<path class="st0" d="M33.9,294.7L303.1,25.4c4.5-4.5,4.5-11.9,0-16.4l0,0c-4.5-4.5-11.9-4.5-16.4,0L17.5,278.3
	c-4.5,4.5-4.5,11.9,0,16.4l0,0C22,299.2,29.3,299.2,33.9,294.7z"/>
</svg>
