<?xml version="1.0" encoding="utf-8"?>
<!-- Generator: Adobe Illustrator 26.5.0, SVG Export Plug-In . SVG Version: 6.00 Build 0)  -->
<svg version="1.1" id="Capa_2_00000104665686085496544690000009505239336909876910_"
	 xmlns="http://www.w3.org/2000/svg" xmlns:xlink="http://www.w3.org/1999/xlink" x="0px" y="0px" viewBox="0 0 427.5 280.5"
	 style="enable-background:new 0 0 427.5 280.5;" xml:space="preserve">
<style type="text/css">
	.st0{fill:#FFFFFF;}
</style>
<g>
	<path class="st0" d="M404.2,32.1H23.4c-6.4,0-11.6-5.2-11.6-11.6v0c0-6.4,5.2-11.6,11.6-11.6h380.8c6.4,0,11.6,5.2,11.6,11.6v0
		C415.8,26.9,410.6,32.1,404.2,32.1z"/>
	<path class="st0" d="M404.2,151.8H23.4c-6.4,0-11.6-5.2-11.6-11.6v0c0-6.4,5.2-11.6,11.6-11.6h380.8c6.4,0,11.6,5.2,11.6,11.6v0
		C415.8,146.6,410.6,151.8,404.2,151.8z"/>
	<path class="st0" d="M404.2,271.6H23.4c-6.4,0-11.6-5.2-11.6-11.6v0c0-6.4,5.2-11.6,11.6-11.6h380.8c6.4,0,11.6,5.2,11.6,11.6v0
		C415.8,266.4,410.6,271.6,404.2,271.6z"/>
</g>
</svg>
