<svg width="512" height="369" viewBox="0 0 512 369" fill="none" xmlns="http://www.w3.org/2000/svg">
<g clip-path="url(#clip0_6059_34013)">
<path d="M512 0H0V369H512V0Z" fill="#D6EAFD"/>
<path d="M248.796 131.412L162.367 79.9468C161.327 79.3247 160.466 78.4437 159.869 77.3897C159.271 76.3357 158.957 75.1448 158.957 73.9332C158.957 72.7215 159.271 71.5306 159.869 70.4766C160.466 69.4226 161.327 68.5416 162.367 67.9196L248.796 16.5242C250.959 15.2203 253.437 14.5312 255.962 14.5312C258.488 14.5313 260.966 15.2203 263.129 16.5242L349.558 67.9896C350.597 68.6119 351.458 69.493 352.055 70.547C352.652 71.6009 352.966 72.7917 352.966 74.0031C352.966 75.2145 352.652 76.4053 352.055 77.4592C351.458 78.5132 350.597 79.3943 349.558 80.0167L263.129 131.482C260.954 132.759 258.475 133.426 255.953 133.414C253.431 133.401 250.958 132.71 248.796 131.412Z" fill="#FBF7F4"/>
<path d="M367.599 60.4429L281.17 8.97749C280.131 8.3551 279.27 7.47396 278.673 6.42002C278.076 5.36607 277.762 4.17529 277.762 2.96384C277.762 1.75238 278.076 0.561607 278.673 -0.49234C279.27 -1.54629 280.131 -2.42743 281.17 -3.04981L367.599 -54.5149C369.762 -55.8188 372.241 -56.5078 374.767 -56.5078C377.293 -56.5078 379.771 -55.8188 381.935 -54.5149L468.361 -3.04981C469.401 -2.42773 470.262 -1.5467 470.859 -0.492714C471.457 0.561275 471.771 1.7522 471.771 2.96384C471.771 4.17547 471.457 5.3664 470.859 6.42039C470.262 7.47438 469.401 8.35541 468.361 8.97749L381.935 60.4429C379.771 61.7468 377.293 62.4358 374.767 62.4358C372.241 62.4358 369.762 61.7468 367.599 60.4429Z" fill="#FF3925"/>
<path d="M486.407 131.42L399.979 79.9543C398.939 79.3319 398.079 78.4508 397.482 77.3968C396.884 76.3429 396.57 75.1521 396.57 73.9407C396.57 72.7292 396.884 71.5384 397.482 70.4845C398.079 69.4305 398.939 68.5494 399.979 67.927L486.407 16.4617C488.571 15.1578 491.049 14.4687 493.574 14.4688C496.1 14.4688 498.578 15.1578 500.741 16.4617L587.17 67.927C588.21 68.5494 589.07 69.4305 589.667 70.4845C590.265 71.5384 590.579 72.7292 590.579 73.9407C590.579 75.1521 590.265 76.3429 589.667 77.3968C589.07 78.4508 588.21 79.3319 587.17 79.9543L500.741 131.42C498.578 132.724 496.1 133.413 493.574 133.413C491.049 133.413 488.571 132.724 486.407 131.42Z" fill="#FFD71E"/>
<path d="M129.994 60.4429L43.5651 8.97749C42.5256 8.35522 41.6652 7.47412 41.0677 6.42016C40.4703 5.3662 40.1562 4.17536 40.1562 2.96384C40.1562 1.75232 40.4703 0.561481 41.0677 -0.492481C41.6652 -1.54644 42.5256 -2.42754 43.5651 -3.04981L129.994 -54.5149C132.157 -55.8188 134.635 -56.5078 137.161 -56.5078C139.686 -56.5078 142.164 -55.8188 144.328 -54.5149L230.756 -3.04981C231.796 -2.42743 232.656 -1.54629 233.253 -0.49234C233.851 0.561607 234.165 1.75238 234.165 2.96384C234.165 4.17529 233.851 5.36607 233.253 6.42002C232.656 7.47396 231.796 8.3551 230.756 8.97749L144.328 60.4429C142.164 61.7468 139.686 62.4358 137.161 62.4358C134.635 62.4358 132.157 61.7468 129.994 60.4429Z" fill="#FFA89D"/>
<path d="M367.599 202.459L281.17 150.994C280.131 150.371 279.27 149.49 278.673 148.436C278.076 147.382 277.762 146.192 277.762 144.98C277.762 143.769 278.076 142.578 278.673 141.524C279.27 140.47 280.131 139.589 281.17 138.966L367.599 87.5007C369.762 86.1968 372.241 85.5078 374.767 85.5078C377.293 85.5078 379.771 86.1968 381.935 87.5007L468.361 138.966C469.401 139.588 470.262 140.469 470.859 141.523C471.457 142.577 471.771 143.768 471.771 144.98C471.771 146.191 471.457 147.382 470.859 148.436C470.262 149.49 469.401 150.371 468.361 150.993L381.935 202.459C379.759 203.729 377.286 204.399 374.767 204.399C372.248 204.399 369.774 203.729 367.599 202.459Z" fill="#FFF372"/>
<path d="M486.407 273.435L399.979 221.97C398.939 221.347 398.079 220.466 397.482 219.412C396.884 218.358 396.57 217.168 396.57 215.956C396.57 214.745 396.884 213.554 397.482 212.5C398.079 211.446 398.939 210.565 399.979 209.943L486.407 158.477C488.571 157.173 491.049 156.484 493.574 156.484C496.1 156.484 498.578 157.173 500.741 158.477L587.17 209.942C588.21 210.565 589.07 211.446 589.667 212.5C590.265 213.554 590.579 214.744 590.579 215.956C590.579 217.167 590.265 218.358 589.667 219.412C589.07 220.466 588.21 221.347 587.17 221.969L500.741 273.435C498.578 274.738 496.1 275.427 493.574 275.427C491.049 275.427 488.571 274.738 486.407 273.435Z" fill="#E0B0FF"/>
<path d="M11.261 131.42L-75.1673 79.9543C-76.2068 79.3321 -77.0672 78.451 -77.6647 77.397C-78.2621 76.343 -78.5762 75.1522 -78.5762 73.9407C-78.5762 72.7292 -78.2621 71.5383 -77.6647 70.4844C-77.0672 69.4304 -76.2068 68.5493 -75.1673 67.927L11.261 16.4617C13.4244 15.1578 15.9024 14.4687 18.4283 14.4688C20.9542 14.4687 23.4323 15.1578 25.5956 16.4617L112.025 67.927C113.064 68.5494 113.924 69.4305 114.522 70.4845C115.119 71.5384 115.433 72.7292 115.433 73.9407C115.433 75.1521 115.119 76.3429 114.522 77.3969C113.924 78.4508 113.064 79.3319 112.025 79.9543L25.5956 131.42C23.4323 132.724 20.9542 133.413 18.4283 133.413C15.9024 133.413 13.4244 132.724 11.261 131.42Z" fill="#FFF372"/>
<path d="M129.994 202.459L43.5651 150.994C42.5256 150.371 41.6652 149.49 41.0677 148.436C40.4703 147.382 40.1562 146.192 40.1562 144.98C40.1562 143.769 40.4703 142.578 41.0677 141.524C41.6652 140.47 42.5256 139.589 43.5651 138.966L129.994 87.5007C132.157 86.1969 134.635 85.5078 137.161 85.5078C139.686 85.5078 142.164 86.1969 144.328 87.5007L230.756 138.966C231.796 139.589 232.656 140.47 233.253 141.524C233.851 142.578 234.165 143.768 234.165 144.98C234.165 146.191 233.851 147.382 233.253 148.436C232.656 149.49 231.796 150.371 230.756 150.993L144.328 202.459C142.153 203.729 139.679 204.399 137.161 204.399C134.642 204.399 132.168 203.729 129.994 202.459Z" fill="#FFD71E"/>
<path d="M248.796 273.435L162.367 221.97C161.327 221.348 160.466 220.467 159.869 219.413C159.271 218.359 158.957 217.168 158.957 215.956C158.957 214.745 159.271 213.554 159.869 212.5C160.466 211.446 161.327 210.565 162.367 209.943L248.796 158.477C250.959 157.173 253.437 156.484 255.962 156.484C258.488 156.484 260.966 157.173 263.129 158.477L349.558 209.943C350.597 210.565 351.458 211.446 352.055 212.5C352.652 213.554 352.966 214.745 352.966 215.956C352.966 217.168 352.652 218.358 352.055 219.412C351.458 220.466 350.597 221.347 349.558 221.97L263.129 273.435C260.966 274.738 258.488 275.427 255.962 275.427C253.437 275.427 250.959 274.738 248.796 273.435Z" fill="#FFA89D"/>
<path d="M367.599 344.403L281.17 292.939C280.131 292.316 279.27 291.435 278.673 290.382C278.076 289.328 277.762 288.137 277.762 286.926C277.762 285.714 278.076 284.523 278.673 283.47C279.27 282.416 280.131 281.535 281.17 280.912L367.599 229.446C369.762 228.142 372.241 227.453 374.767 227.453C377.293 227.453 379.771 228.142 381.935 229.446L468.361 280.912C469.401 281.534 470.262 282.415 470.859 283.469C471.457 284.523 471.771 285.714 471.771 286.926C471.771 288.137 471.457 289.328 470.859 290.382C470.262 291.436 469.401 292.317 468.361 292.939L381.935 344.403C379.771 345.707 377.293 346.397 374.767 346.397C372.24 346.397 369.762 345.707 367.599 344.403Z" fill="#FBF7F4"/>
<path d="M486.407 415.443L399.979 363.977C398.939 363.355 398.079 362.474 397.482 361.42C396.884 360.366 396.57 359.175 396.57 357.964C396.57 356.752 396.884 355.562 397.482 354.508C398.079 353.454 398.939 352.573 399.979 351.951L486.407 300.486C488.57 299.182 491.048 298.492 493.574 298.492C496.1 298.492 498.578 299.182 500.741 300.486L587.17 351.951C588.21 352.573 589.07 353.454 589.667 354.508C590.265 355.562 590.579 356.752 590.579 357.964C590.579 359.175 590.265 360.366 589.667 361.42C589.07 362.474 588.21 363.355 587.17 363.977L500.742 415.443C498.567 416.715 496.093 417.385 493.574 417.385C491.056 417.385 488.582 416.715 486.407 415.443Z" fill="#FFA89D"/>
<path d="M11.2611 273.435L-75.1673 221.97C-76.2068 221.348 -77.0672 220.466 -77.6647 219.413C-78.2621 218.359 -78.5762 217.168 -78.5762 215.956C-78.5762 214.745 -78.2621 213.554 -77.6647 212.5C-77.0672 211.446 -76.2068 210.565 -75.1673 209.943L11.2611 158.477C13.4244 157.173 15.9025 156.484 18.4284 156.484C20.9542 156.484 23.4323 157.173 25.5956 158.477L112.025 209.943C113.064 210.565 113.924 211.446 114.522 212.5C115.119 213.554 115.433 214.745 115.433 215.956C115.433 217.168 115.119 218.358 114.522 219.412C113.924 220.466 113.064 221.347 112.025 221.97L25.5956 273.435C23.4322 274.738 20.9542 275.427 18.4284 275.427C15.9025 275.427 13.4245 274.738 11.2611 273.435Z" fill="#A519FF"/>
<path d="M129.994 344.403L43.5652 292.939C42.5257 292.317 41.6652 291.436 41.0678 290.382C40.4703 289.328 40.1562 288.137 40.1562 286.926C40.1562 285.714 40.4703 284.523 41.0678 283.469C41.6652 282.416 42.5257 281.535 43.5652 280.912L129.994 229.446C132.157 228.142 134.635 227.453 137.161 227.453C139.686 227.453 142.164 228.142 144.328 229.446L230.756 280.912C231.796 281.535 232.656 282.416 233.253 283.47C233.851 284.523 234.165 285.714 234.165 286.926C234.165 288.137 233.851 289.328 233.253 290.382C232.656 291.435 231.796 292.316 230.756 292.939L144.328 344.403C142.165 345.707 139.687 346.397 137.161 346.397C134.635 346.397 132.157 345.707 129.994 344.403Z" fill="#E0B0FF"/>
<path d="M248.796 415.443L162.367 363.977C161.327 363.355 160.466 362.474 159.869 361.42C159.271 360.366 158.957 359.175 158.957 357.964C158.957 356.752 159.271 355.561 159.869 354.507C160.466 353.454 161.327 352.573 162.367 351.951L248.796 300.486C250.959 299.182 253.437 298.492 255.963 298.492C258.488 298.492 260.966 299.182 263.129 300.486L349.558 351.951C350.597 352.573 351.458 353.454 352.055 354.508C352.652 355.562 352.966 356.752 352.966 357.964C352.966 359.175 352.652 360.366 352.055 361.42C351.458 362.474 350.597 363.355 349.558 363.977L263.129 415.443C260.955 416.715 258.481 417.384 255.963 417.384C253.444 417.384 250.97 416.715 248.796 415.443Z" fill="#FF3925"/>
<path d="M11.2611 415.443L-75.1673 363.977C-76.2067 363.355 -77.0672 362.474 -77.6647 361.42C-78.2621 360.366 -78.5762 359.175 -78.5762 357.964C-78.5762 356.752 -78.2621 355.562 -77.6647 354.508C-77.0672 353.454 -76.2067 352.573 -75.1673 351.951L11.2611 300.486C13.4241 299.182 15.9023 298.492 18.4284 298.492C20.9544 298.492 23.4326 299.182 25.5956 300.486L112.025 351.951C113.064 352.573 113.924 353.454 114.522 354.508C115.119 355.562 115.433 356.752 115.433 357.964C115.433 359.175 115.119 360.366 114.522 361.42C113.924 362.474 113.064 363.355 112.025 363.977L25.5956 415.443C23.421 416.715 20.9473 417.384 18.4284 417.384C15.9094 417.384 13.4357 416.715 11.2611 415.443Z" fill="#FFD71E"/>
<path d="M367.172 177.255L280.746 125.79C279.706 125.168 278.845 124.287 278.248 123.233C277.65 122.179 277.336 120.988 277.336 119.776C277.336 118.565 277.65 117.374 278.248 116.32C278.845 115.266 279.706 114.385 280.746 113.763L367.172 62.2974C369.336 60.9937 371.814 60.3047 374.34 60.3047C376.866 60.3047 379.345 60.9937 381.508 62.2974L467.937 113.763C468.976 114.385 469.837 115.266 470.434 116.32C471.031 117.374 471.345 118.565 471.345 119.776C471.345 120.988 471.031 122.179 470.434 123.233C469.837 124.287 468.976 125.168 467.937 125.79L381.508 177.255C379.333 178.526 376.859 179.196 374.34 179.196C371.821 179.196 369.347 178.526 367.172 177.255V177.255Z" stroke="#2D1653"/>
<path d="M453.251 120.262C454.834 120.262 456.118 119.479 456.118 118.514C456.118 117.548 454.834 116.766 453.251 116.766C451.669 116.766 450.385 117.548 450.385 118.514C450.385 119.479 451.669 120.262 453.251 120.262Z" fill="#2D1653"/>
<path d="M444.013 114.723C445.596 114.723 446.88 113.94 446.88 112.975C446.88 112.009 445.596 111.227 444.013 111.227C442.428 111.227 441.146 112.009 441.146 112.975C441.146 113.94 442.428 114.723 444.013 114.723Z" fill="#2D1653"/>
<path d="M434.707 109.145C436.291 109.145 437.573 108.362 437.573 107.397C437.573 106.431 436.291 105.648 434.707 105.648C433.124 105.648 431.84 106.431 431.84 107.397C431.84 108.362 433.124 109.145 434.707 109.145Z" fill="#2D1653"/>
<path d="M415.182 148.479L420.3 145.414" stroke="#2D1653" stroke-linecap="round"/>
<path d="M407.994 147.645L421.07 139.883" stroke="#2D1653" stroke-linecap="round"/>
<path d="M398.137 148.475L422.401 134" stroke="#2D1653" stroke-linecap="round"/>
<path d="M389.463 148.555L422.608 128.766" stroke="#2D1653" stroke-linecap="round"/>
<path d="M392.609 141.531L410.519 130.859" stroke="#2D1653" stroke-linecap="round"/>
<path d="M393.143 136.165L402.334 130.656" stroke="#2D1653" stroke-linecap="round"/>
<path d="M381.303 138.098L404.685 124.195" stroke="#2D1653" stroke-linecap="round"/>
<path d="M384.881 130.866L391.958 126.641" stroke="#2D1653" stroke-linecap="round"/>
<path d="M377.404 130.305L392.106 121.508" stroke="#2D1653" stroke-linecap="round"/>
<path d="M376.555 125.716L382.818 121.984" stroke="#2D1653" stroke-linecap="round"/>
<path d="M364.744 127.644L387.269 114.211" stroke="#2D1653" stroke-linecap="round"/>
<path d="M356.307 127.564L387.788 108.758" stroke="#2D1653" stroke-linecap="round"/>
<path d="M344.434 129.596L390.934 101.766" stroke="#2D1653" stroke-linecap="round"/>
<path d="M348.158 122.229L377.858 104.492" stroke="#2D1653" stroke-linecap="round"/>
<path d="M348.857 116.74L369.393 104.492" stroke="#2D1653" stroke-linecap="round"/>
<path d="M341.623 115.964L369.046 99.6094" stroke="#2D1653" stroke-linecap="round"/>
<path d="M344.434 109.192L356.214 102.172" stroke="#2D1653" stroke-linecap="round"/>
<path d="M336.74 108.687L355.97 97.2188" stroke="#2D1653" stroke-linecap="round"/>
<path d="M328.092 108.758L356.078 92.0703" stroke="#2D1653" stroke-linecap="round"/>
<path d="M330.547 102.17L344.584 93.8516" stroke="#2D1653" stroke-linecap="round"/>
<path d="M330.309 97.2184L336.654 93.4453" stroke="#2D1653" stroke-linecap="round"/>
<path d="M98.6456 233.422L93.5273 236.486" stroke="#2D1653" stroke-linecap="round"/>
<path d="M105.832 234.25L92.7559 242.012" stroke="#2D1653" stroke-linecap="round"/>
<path d="M115.69 233.422L91.4258 247.896" stroke="#2D1653" stroke-linecap="round"/>
<path d="M124.366 233.344L91.2207 253.133" stroke="#2D1653" stroke-linecap="round"/>
<path d="M121.218 240.359L103.309 251.031" stroke="#2D1653" stroke-linecap="round"/>
<path d="M120.686 245.727L111.494 251.236" stroke="#2D1653" stroke-linecap="round"/>
<path d="M132.523 243.797L109.141 257.7" stroke="#2D1653" stroke-linecap="round"/>
<path d="M128.946 251.031L121.869 255.257" stroke="#2D1653" stroke-linecap="round"/>
<path d="M130.822 254.945L128.217 256.504" stroke="#2D1653" stroke-linecap="round"/>
<path d="M137.273 256.18L131.01 259.912" stroke="#2D1653" stroke-linecap="round"/>
<path d="M149.084 254.25L126.559 267.684" stroke="#2D1653" stroke-linecap="round"/>
<path d="M157.523 254.328L126.041 273.134" stroke="#2D1653" stroke-linecap="round"/>
<path d="M169.395 252.305L122.895 280.135" stroke="#2D1653" stroke-linecap="round"/>
<path d="M165.67 259.664L135.971 277.401" stroke="#2D1653" stroke-linecap="round"/>
<path d="M164.971 265.156L144.436 277.405" stroke="#2D1653" stroke-linecap="round"/>
<path d="M172.204 265.93L144.781 282.284" stroke="#2D1653" stroke-linecap="round"/>
<path d="M167.072 274.086L159.652 278.508" stroke="#2D1653" stroke-linecap="round"/>
<path d="M177.087 273.203L157.857 284.671" stroke="#2D1653" stroke-linecap="round"/>
<path d="M185.736 273.133L157.75 289.821" stroke="#2D1653" stroke-linecap="round"/>
<path d="M183.28 279.727L169.242 288.045" stroke="#2D1653" stroke-linecap="round"/>
<path d="M183.521 284.672L177.176 288.445" stroke="#2D1653" stroke-linecap="round"/>
<path d="M367.172 318.569L280.746 267.102C279.706 266.48 278.845 265.599 278.248 264.546C277.65 263.492 277.336 262.301 277.336 261.089C277.336 259.878 277.65 258.687 278.248 257.633C278.845 256.579 279.706 255.698 280.746 255.076L367.172 203.61C369.336 202.306 371.814 201.617 374.34 201.617C376.866 201.617 379.345 202.306 381.508 203.61L467.937 255.076C468.976 255.698 469.837 256.579 470.434 257.633C471.031 258.687 471.345 259.878 471.345 261.089C471.345 262.301 471.031 263.491 470.434 264.545C469.837 265.599 468.976 266.48 467.937 267.102L381.508 318.569C379.333 319.839 376.859 320.508 374.34 320.508C371.821 320.508 369.348 319.839 367.172 318.569Z" stroke="#2D1653"/>
<path d="M453.251 261.583C454.834 261.583 456.118 260.799 456.118 259.834C456.118 258.867 454.834 258.086 453.251 258.086C451.669 258.086 450.385 258.867 450.385 259.834C450.385 260.799 451.669 261.583 453.251 261.583Z" fill="#2D1653"/>
<path d="M444.013 256.042C445.596 256.042 446.88 255.26 446.88 254.293C446.88 253.328 445.596 252.547 444.013 252.547C442.428 252.547 441.146 253.328 441.146 254.293C441.146 255.26 442.428 256.042 444.013 256.042Z" fill="#2D1653"/>
<path d="M434.707 250.465C436.291 250.465 437.573 249.682 437.573 248.717C437.573 247.752 436.291 246.969 434.707 246.969C433.124 246.969 431.84 247.752 431.84 248.717C431.84 249.682 433.124 250.465 434.707 250.465Z" fill="#2D1653"/>
<path d="M409.41 290.88L420.979 283.953" stroke="#2D1653" stroke-linecap="round"/>
<path d="M407.766 286.748L414.569 282.711" stroke="#2D1653" stroke-linecap="round"/>
<path d="M401.033 285.704L412.378 278.938" stroke="#2D1653" stroke-linecap="round"/>
<path d="M392.484 285.702L410.672 274.844" stroke="#2D1653" stroke-linecap="round"/>
<path d="M383.271 286.052L410.004 270.125" stroke="#2D1653" stroke-linecap="round"/>
<path d="M383.791 280.717L402.184 269.695" stroke="#2D1653" stroke-linecap="round"/>
<path d="M375.152 280.715L404.169 263.461" stroke="#2D1653" stroke-linecap="round"/>
<path d="M376.859 274.607L393.316 264.781" stroke="#2D1653" stroke-linecap="round"/>
<path d="M376.088 270.041L387.007 263.508" stroke="#2D1653" stroke-linecap="round"/>
<path d="M370.258 268.422L386.691 258.633" stroke="#2D1653" stroke-linecap="round"/>
<path d="M362.051 268.206L385.863 254.008" stroke="#2D1653" stroke-linecap="round"/>
<path d="M353.104 268.432L386.539 248.461" stroke="#2D1653" stroke-linecap="round"/>
<path d="M342.424 269.752L388.926 241.922" stroke="#2D1653" stroke-linecap="round"/>
<path d="M346.969 261.896L375.079 245.109" stroke="#2D1653" stroke-linecap="round"/>
<path d="M346.969 256.815L365.349 245.852" stroke="#2D1653" stroke-linecap="round"/>
<path d="M348.689 250.722L358.099 245.109" stroke="#2D1653" stroke-linecap="round"/>
<path d="M333.039 254.941L363.884 236.555" stroke="#2D1653" stroke-linecap="round"/>
<path d="M334.732 248.842L353.962 237.375" stroke="#2D1653" stroke-linecap="round"/>
<path d="M336.541 242.679L344.951 237.664" stroke="#2D1653" stroke-linecap="round"/>
<path d="M327.318 243.047L344.309 232.977" stroke="#2D1653" stroke-linecap="round"/>
<path d="M326.412 238.498L336.761 232.344" stroke="#2D1653" stroke-linecap="round"/>
<path d="M130.967 177.255L44.5396 125.79C43.5001 125.168 42.6397 124.287 42.0423 123.233C41.4449 122.179 41.1309 120.988 41.1309 119.776C41.1309 118.565 41.4449 117.374 42.0423 116.32C42.6397 115.266 43.5001 114.385 44.5396 113.763L130.967 62.2974C133.131 60.9937 135.609 60.3047 138.135 60.3047C140.661 60.3047 143.139 60.9937 145.303 62.2974L231.731 113.763C232.771 114.385 233.631 115.266 234.228 116.32C234.826 117.374 235.14 118.565 235.14 119.776C235.14 120.988 234.826 122.179 234.228 123.233C233.631 124.287 232.771 125.168 231.731 125.79L145.303 177.255C143.128 178.526 140.654 179.196 138.135 179.196C135.616 179.196 133.142 178.526 130.967 177.255V177.255Z" stroke="#2D1653"/>
<path d="M217.046 120.262C218.629 120.262 219.913 119.479 219.913 118.514C219.913 117.548 218.629 116.766 217.046 116.766C215.464 116.766 214.18 117.548 214.18 118.514C214.18 119.479 215.464 120.262 217.046 120.262Z" fill="#2D1653"/>
<path d="M207.808 114.723C209.391 114.723 210.675 113.94 210.675 112.975C210.675 112.009 209.391 111.227 207.808 111.227C206.223 111.227 204.941 112.009 204.941 112.975C204.941 113.94 206.223 114.723 207.808 114.723Z" fill="#2D1653"/>
<path d="M198.501 109.145C200.086 109.145 201.368 108.362 201.368 107.397C201.368 106.431 200.086 105.648 198.501 105.648C196.919 105.648 195.635 106.431 195.635 107.397C195.635 108.362 196.919 109.145 198.501 109.145Z" fill="#2D1653"/>
<path d="M175.096 148.433L186.074 141.859" stroke="#2D1653" stroke-linecap="round"/>
<path d="M169.781 146.48L182.857 138.719" stroke="#2D1653" stroke-linecap="round"/>
<path d="M159.924 147.31L184.188 132.836" stroke="#2D1653" stroke-linecap="round"/>
<path d="M151.248 147.391L184.393 127.602" stroke="#2D1653" stroke-linecap="round"/>
<path d="M151.67 141.992L175.375 127.867" stroke="#2D1653" stroke-linecap="round"/>
<path d="M150.137 137.869L168.458 126.891" stroke="#2D1653" stroke-linecap="round"/>
<path d="M142.094 137.524L167.965 122.141" stroke="#2D1653" stroke-linecap="round"/>
<path d="M131.463 138.779L169.993 115.773" stroke="#2D1653" stroke-linecap="round"/>
<path d="M134.053 132.215L158.947 117.32" stroke="#2D1653" stroke-linecap="round"/>
<path d="M134.053 127.11L150.486 117.32" stroke="#2D1653" stroke-linecap="round"/>
<path d="M124.541 127.669L151.394 111.656" stroke="#2D1653" stroke-linecap="round"/>
<path d="M115.379 128.02L152.021 106.133" stroke="#2D1653" stroke-linecap="round"/>
<path d="M106.219 128.432L152.721 100.602" stroke="#2D1653" stroke-linecap="round"/>
<path d="M107.543 122.501L142.786 101.453" stroke="#2D1653" stroke-linecap="round"/>
<path d="M107.129 117.659L134.68 101.227" stroke="#2D1653" stroke-linecap="round"/>
<path d="M107.059 112.632L126.289 101.164" stroke="#2D1653" stroke-linecap="round"/>
<path d="M105.312 108.57L119.507 100.109" stroke="#2D1653" stroke-linecap="round"/>
<path d="M98.5273 107.523L117.757 96.0547" stroke="#2D1653" stroke-linecap="round"/>
<path d="M92.4453 106.065L115.311 92.4297" stroke="#2D1653" stroke-linecap="round"/>
<path d="M91.1133 101.726L108.104 91.6562" stroke="#2D1653" stroke-linecap="round"/>
<path d="M90.207 97.1768L100.556 91.0234" stroke="#2D1653" stroke-linecap="round"/>
<path d="M130.967 318.569L44.5396 267.102C43.5001 266.48 42.6397 265.599 42.0423 264.545C41.4449 263.491 41.1309 262.301 41.1309 261.089C41.1309 259.878 41.4449 258.687 42.0423 257.633C42.6397 256.579 43.5001 255.698 44.5396 255.076L130.967 203.61C133.131 202.306 135.609 201.617 138.135 201.617C140.661 201.617 143.14 202.306 145.303 203.61L231.732 255.076C232.771 255.698 233.632 256.579 234.229 257.633C234.826 258.687 235.14 259.878 235.14 261.089C235.14 262.301 234.826 263.491 234.229 264.545C233.632 265.599 232.771 266.48 231.732 267.102L145.303 318.569C143.128 319.839 140.654 320.508 138.135 320.508C135.616 320.508 133.142 319.839 130.967 318.569V318.569Z" stroke="#2D1653"/>
<path d="M217.046 261.583C218.629 261.583 219.913 260.799 219.913 259.834C219.913 258.867 218.629 258.086 217.046 258.086C215.464 258.086 214.18 258.867 214.18 259.834C214.18 260.799 215.464 261.583 217.046 261.583Z" fill="#2D1653"/>
<path d="M207.808 256.042C209.391 256.042 210.675 255.26 210.675 254.293C210.675 253.328 209.391 252.547 207.808 252.547C206.223 252.547 204.941 253.328 204.941 254.293C204.941 255.26 206.223 256.042 207.808 256.042Z" fill="#2D1653"/>
<path d="M198.501 250.465C200.086 250.465 201.368 249.682 201.368 248.717C201.368 247.752 200.086 246.969 198.501 246.969C196.919 246.969 195.635 247.752 195.635 248.717C195.635 249.682 196.919 250.465 198.501 250.465Z" fill="#2D1653"/>
</g>
<defs>
<clipPath id="clip0_6059_34013">
<rect width="512" height="369" fill="white"/>
</clipPath>
</defs>
</svg>
